<?xml version="1.0" encoding="UTF-8" standalone="no"?>
<!-- Created with Inkscape (http://www.inkscape.org/) -->

<svg
   xmlns:osb="http://www.openswatchbook.org/uri/2009/osb"
   xmlns:dc="http://purl.org/dc/elements/1.1/"
   xmlns:cc="http://creativecommons.org/ns#"
   xmlns:rdf="http://www.w3.org/1999/02/22-rdf-syntax-ns#"
   xmlns:svg="http://www.w3.org/2000/svg"
   xmlns="http://www.w3.org/2000/svg"
   xmlns:sodipodi="http://sodipodi.sourceforge.net/DTD/sodipodi-0.dtd"
   xmlns:inkscape="http://www.inkscape.org/namespaces/inkscape"
   width="1200"
   height="1200"
   viewBox="0 0 1200 1200"
   id="svg2"
   version="1.1"
   inkscape:version="0.91 r13725"
   sodipodi:docname="icon.svg">
  <defs
     id="defs4">
    <linearGradient
       id="linearGradient4159"
       osb:paint="solid">
      <stop
         style="stop-color:#ffffff;stop-opacity:1;"
         offset="0"
         id="stop4161" />
    </linearGradient>
  </defs>
  <sodipodi:namedview
     id="base"
     pagecolor="#808080"
     bordercolor="#666666"
     borderopacity="1.0"
     inkscape:pageopacity="1"
     inkscape:pageshadow="2"
     inkscape:zoom="0.8"
     inkscape:cx="112.70312"
     inkscape:cy="587.10826"
     inkscape:document-units="px"
     inkscape:current-layer="layer1"
     showgrid="false"
     units="px"
     showguides="false"
     inkscape:guide-bbox="true"
     inkscape:window-width="2160"
     inkscape:window-height="1377"
     inkscape:window-x="-8"
     inkscape:window-y="-8"
     inkscape:window-maximized="1"
     showborder="true"
     borderlayer="false"
     inkscape:showpageshadow="false">
    <sodipodi:guide
       position="600,788"
       orientation="1,0"
       id="guide3338" />
    <sodipodi:guide
       position="461,600"
       orientation="0,1"
       id="guide3340" />
    <sodipodi:guide
       position="300,1041.25"
       orientation="1,0"
       id="guide4146" />
    <sodipodi:guide
       position="900,951.25"
       orientation="1,0"
       id="guide4148" />
    <sodipodi:guide
       position="508.75,900"
       orientation="0,1"
       id="guide4150" />
    <sodipodi:guide
       position="46.25,300"
       orientation="0,1"
       id="guide4159" />
  </sodipodi:namedview>
  <metadata
     id="metadata7">
    <rdf:RDF>
      <cc:Work
         rdf:about="">
        <dc:format>image/svg+xml</dc:format>
        <dc:type
           rdf:resource="http://purl.org/dc/dcmitype/StillImage" />
        <dc:title />
      </cc:Work>
    </rdf:RDF>
  </metadata>
  <g
     inkscape:label="レイヤー 1"
     inkscape:groupmode="layer"
     id="layer1"
     transform="translate(0,147.63784)">
    <path
       style="fill:#ffffff;fill-opacity:1;fill-rule:evenodd;stroke:none;stroke-width:60;stroke-linecap:butt;stroke-linejoin:miter;stroke-miterlimit:4;stroke-dasharray:none;stroke-opacity:1"
       d="M 320.4582,358.86508 C 209.28724,321.7899 186.01906,313.94454 40.634111,265.49988 a 590.5821,590.9262 0 0 0 0.746285,377.52395 L 321.20728,548.62356 A 295.29105,295.46309 0 0 1 320.4582,358.86508 Z"
       id="path4222"
       inkscape:export-xdpi="90"
       inkscape:export-ydpi="90"
       inkscape:connector-curvature="0" />
    <path
       style="fill:#ffffff;fill-opacity:1;fill-rule:evenodd;stroke:none;stroke-width:60;stroke-linecap:butt;stroke-linejoin:miter;stroke-miterlimit:4;stroke-dasharray:none;stroke-opacity:1"
       d="m 786.75904,-107.51489 a 590.5821,590.9262 0 0 0 -373.43765,0.37701 l 93.31528,279.60868 a 295.29105,295.46309 0 0 1 186.76231,-0.29431 C 730.54222,60.927578 738.16137,37.980997 786.75904,-107.51489 Z"
       id="path4205"
       inkscape:export-xdpi="90"
       inkscape:export-ydpi="90"
       inkscape:connector-curvature="0" />
    <path
       style="fill:#ffffff;fill-opacity:1;fill-rule:evenodd;stroke:none;stroke-width:60;stroke-linecap:butt;stroke-linejoin:miter;stroke-miterlimit:4;stroke-dasharray:none;stroke-opacity:1"
       d="m 692.22282,732.6435 a 295.29105,295.46309 0 0 1 -185.84677,-0.17828 c -14.85099,44.5403 -63.17313,189.19741 -73.66568,220.69381 -19.69309,59.11447 -11.4441,34.44364 -19.6104,59.03237 a 590.5821,590.9262 0 0 0 372.73804,-0.048 c -7.18196,-21.23079 -8.47323,-24.75842 -19.64649,-58.0183 -15.62721,-46.51808 -48.47314,-145.12537 -73.9687,-221.48169 z"
       id="path4232"
       inkscape:export-xdpi="90"
       inkscape:export-ydpi="90"
       inkscape:connector-curvature="0" />
    <path
       style="fill:#ffffff;fill-opacity:1;fill-rule:evenodd;stroke:none;stroke-width:60;stroke-linecap:butt;stroke-linejoin:miter;stroke-miterlimit:4;stroke-dasharray:none;stroke-opacity:1"
       d="m 1160.1099,265.62132 -280.25856,93.53641 a 295.29105,295.46309 0 0 1 -0.26072,186.58848 l 279.85878,93.47248 a 590.5821,590.9262 0 0 0 0.6605,-373.59737 z"
       id="path3344"
       inkscape:export-xdpi="90"
       inkscape:export-ydpi="90"
       inkscape:connector-curvature="0" />
    <path
       style="fill:#a6341f;fill-opacity:1;fill-rule:evenodd;stroke:none;stroke-width:60;stroke-linecap:butt;stroke-linejoin:miter;stroke-miterlimit:4;stroke-dasharray:none;stroke-opacity:1"
       d="M 320.4582,358.86508 A 295.29105,295.46309 0 0 1 391.18996,243.44344 295.29105,295.46309 0 0 1 506.63667,172.4708 L 413.32139,-107.13788 A 590.5821,590.9262 0 0 0 182.38299,34.524672 590.5821,590.9262 0 0 0 40.634111,265.49988 C 186.01906,313.94454 209.28724,321.7899 320.4582,358.86508 Z"
       id="path4227"
       inkscape:export-xdpi="90"
       inkscape:export-ydpi="90"
       inkscape:connector-curvature="0" />
    <path
       style="fill:#a6341f;fill-opacity:1;fill-rule:evenodd;stroke:none;stroke-width:60;stroke-linecap:butt;stroke-linejoin:miter;stroke-miterlimit:4;stroke-dasharray:none;stroke-opacity:1"
       d="M 321.20728,548.62356 41.380396,643.02383 A 590.5821,590.9262 0 0 0 182.4027,870.21936 590.5821,590.9262 0 0 0 413.09997,1012.1914 c 8.1663,-24.58873 -0.0827,0.082 19.6104,-59.03237 10.49255,-31.4964 58.81469,-176.15351 73.66568,-220.69381 A 295.29105,295.46309 0 0 1 391.1998,661.29076 295.29105,295.46309 0 0 1 321.20728,548.62356 Z"
       id="path4217"
       inkscape:export-xdpi="90"
       inkscape:export-ydpi="90"
       inkscape:connector-curvature="0" />
    <path
       style="fill:#a6341f;fill-opacity:1;fill-rule:evenodd;stroke:none;stroke-width:60;stroke-linecap:butt;stroke-linejoin:miter;stroke-miterlimit:4;stroke-dasharray:none;stroke-opacity:1"
       d="M 1160.1099,265.62132 A 590.5821,590.9262 0 0 0 1017.591,34.50505 590.5821,590.9262 0 0 0 786.75904,-107.51489 C 738.16137,37.980997 730.54222,60.927578 693.39898,172.17649 a 295.29105,295.46309 0 0 1 115.39498,71.25711 295.29105,295.46309 0 0 1 71.05738,115.72413 l 280.25856,-93.53641 z"
       id="path4208"
       inkscape:export-xdpi="90"
       inkscape:export-ydpi="90"
       inkscape:connector-curvature="0" />
    <path
       style="fill:#a6341f;fill-opacity:1;fill-rule:evenodd;stroke:none;stroke-width:60;stroke-linecap:butt;stroke-linejoin:miter;stroke-miterlimit:4;stroke-dasharray:none;stroke-opacity:1"
       d="m 692.22282,732.6435 c 25.49556,76.35632 58.34149,174.96361 73.9687,221.48169 11.17326,33.25988 12.46453,36.78751 19.64649,58.01831 A 590.5821,590.9262 0 0 0 1017.6107,870.19959 590.5821,590.9262 0 0 0 1159.4494,639.21869 L 879.59062,545.74621 a 295.29105,295.46309 0 0 1 -70.78681,115.5347 295.29105,295.46309 0 0 1 -116.58099,71.36259 z"
       id="path4214"
       inkscape:export-xdpi="90"
       inkscape:export-ydpi="90"
       inkscape:connector-curvature="0" />
  </g>
</svg>
